<svg width="516" height="352" viewBox="0 0 516 352" fill="none" xmlns="http://www.w3.org/2000/svg">
<g opacity="0.4">
<path d="M77.333 264.071L64.4474 286.079L51.5554 308.087H77.333H103.117L90.225 286.079L77.333 264.071Z" fill="#F7F7F7"/>
<path d="M438.23 264.071L425.344 242.07L412.452 220.062L399.567 242.07L386.675 264.071H412.452H438.23Z" fill="#E3E3E3"/>
<path d="M386.678 88.0263L373.793 110.028L360.901 132.036H386.678H412.456L399.57 110.028L386.678 88.0263Z" fill="#E3E3E3"/>
<path d="M257.782 308.087L244.896 286.079L232.004 264.071L219.119 286.079L206.227 308.087H232.004H257.782Z" fill="#EFEFEF"/>
<path d="M232.004 352.097L219.119 330.089L206.227 308.087L193.341 330.089L180.449 352.097H206.227H232.004Z" fill="#E3E3E3"/>
<path d="M386.676 352.097L373.791 330.089L360.899 308.087L348.007 330.089L335.121 352.097H360.899H386.676Z" fill="#969696"/>
<path d="M128.895 264.071L116.003 242.07L103.117 220.062L90.225 242.07L77.333 264.071H103.117H128.895Z" fill="#F7F7F7"/>
<path d="M335.123 88.026L322.231 110.028L309.346 132.036H335.123H360.901L348.009 110.028L335.123 88.026Z" fill="#F7F7F7"/>
<path d="M335.121 264.071L322.229 242.07L309.344 220.062L296.452 242.07L283.566 264.071H309.344H335.121Z" fill="#C9C9C9"/>
<path d="M283.566 176.052H309.344H335.121L322.229 154.044L309.344 132.036L296.452 154.044L283.566 176.052Z" fill="#F7F7F7"/>
<path d="M489.794 352.097H515.571V308.087L502.679 330.089L489.794 352.097Z" fill="#E3E3E3"/>
<path d="M489.792 88.0263L476.9 110.028L464.014 132.036H489.792H515.57L502.678 110.028L489.792 88.0263Z" fill="#E3E3E3"/>
<path d="M464.018 220.061L451.126 198.053L438.234 176.051L425.348 198.053L412.456 220.061H438.234H464.018Z" fill="#F7F7F7"/>
<path d="M464.014 44.0096L451.122 66.0177L438.23 88.0257H464.014H489.792L476.9 66.0177L464.014 44.0096Z" fill="#EFEFEF"/>
<path d="M438.234 0L425.348 22.0081L412.456 44.0098H438.234H464.018L451.126 22.0081L438.234 0Z" fill="#F7F7F7"/>
<path d="M438.23 352.097H464.014H489.792L476.9 330.089L464.014 308.087L451.122 330.089L438.23 352.097Z" fill="#E3E3E3"/>
<path d="M438.23 264.071H464.014H489.792L476.9 242.07L464.014 220.062L451.122 242.07L438.23 264.071Z" fill="#C9C9C9"/>
<path d="M464.014 308.087L476.9 330.089L489.792 352.097L502.678 330.089L515.57 308.087H489.792H464.014Z" fill="#969696"/>
<path d="M438.234 352.097L451.126 330.089L464.018 308.087H438.234H412.456L425.348 330.089L438.234 352.097Z" fill="#F7F7F7"/>
<path d="M386.678 352.097L399.57 330.089L412.456 308.087H386.678H360.901L373.793 330.089L386.678 352.097Z" fill="#666666"/>
<path d="M360.901 308.087H335.123H309.346L322.231 330.089L335.123 352.097L348.009 330.089L360.901 308.087Z" fill="#C9C9C9"/>
<path d="M232.004 352.097L244.896 330.089L257.782 308.087H232.004H206.227L219.119 330.089L232.004 352.097Z" fill="#1EC96B"/>
<path d="M206.227 308.087H180.449H154.672L167.557 330.089L180.449 352.097L193.341 330.089L206.227 308.087Z" fill="#F7F7F7"/>
<path d="M51.5551 308.088H25.7776H0L12.892 330.09L25.7776 352.098L38.6696 330.09L51.5551 308.088Z" fill="#F7F7F7"/>
<path d="M103.116 308.087L116.002 330.089L128.894 352.097L141.78 330.089L154.672 308.087H128.894H103.116Z" fill="#D3EFDF"/>
<path d="M438.23 264.071L451.122 286.08L464.014 308.088L476.9 286.08L489.792 264.071H464.014H438.23Z" fill="#969696"/>
<path d="M438.23 264.071H412.452H386.675L399.567 286.08L412.452 308.088L425.344 286.08L438.23 264.071Z" fill="#C9C9C9"/>
<path d="M257.783 308.087L270.675 286.079L283.567 264.071H257.783H232.005L244.897 286.079L257.783 308.087Z" fill="#D3EFDF"/>
<path d="M232.004 264.071H206.227H180.449L193.341 286.079L206.227 308.087L219.119 286.079L232.004 264.071Z" fill="url(#paint0_linear_341_28963)"/>
<path d="M464.014 220.062L476.9 242.07L489.792 264.071L502.678 242.07L515.57 220.062H489.792H464.014Z" fill="#E3E3E3"/>
<path d="M438.234 264.071L451.126 242.069L464.018 220.061H438.234H412.456L425.348 242.069L438.234 264.071Z" fill="#666666"/>
<path d="M412.456 220.061H386.678H360.901L373.793 242.069L386.678 264.071L399.57 242.069L412.456 220.061Z" fill="#969696"/>
<path d="M206.227 220.061H180.449H154.672L167.557 242.069L180.449 264.071L193.341 242.069L206.227 220.061Z" fill="#EFEFEF"/>
<path d="M464.014 220.062L476.9 198.054L489.792 176.052H464.014H438.23L451.122 198.054L464.014 220.062Z" fill="#E3E3E3"/>
<path d="M438.23 176.052H412.452H386.675L399.567 198.054L412.452 220.062L425.344 198.054L438.23 176.052Z" fill="#E3E3E3"/>
<path d="M232.005 176.051L244.897 198.053L257.783 220.061L270.675 198.053L283.567 176.051H257.783H232.005Z" fill="#C5DCFF"/>
<path d="M464.018 132.036H438.234H412.456L425.348 154.044L438.234 176.052L451.126 154.044L464.018 132.036Z" fill="#F7F7F7"/>
<path d="M257.782 132.036L270.674 154.044L283.566 176.052L296.452 154.044L309.344 132.036H283.566H257.782Z" fill="#EFEFEF"/>
<path d="M464.014 44.0103L476.9 66.0184L489.792 88.0265L502.678 66.0184L515.57 44.0103H489.792H464.014Z" fill="#C9C9C9"/>
<path d="M502.679 286.079L515.571 308.087V264.071H489.794L502.679 286.079Z" fill="#666666"/>
<path d="M502.679 198.053L515.571 220.061V176.051H489.794L502.679 198.053Z" fill="#F7F7F7"/>
</g>
<defs>
<linearGradient id="paint0_linear_341_28963" x1="232.004" y1="269.954" x2="189.863" y2="312.587" gradientUnits="userSpaceOnUse">
<stop stop-color="#F2C86B"/>
<stop offset="1" stop-color="#F2C94C"/>
</linearGradient>
</defs>
</svg>
