<svg width="417" height="120" viewBox="0 0 417 120" fill="none" xmlns="http://www.w3.org/2000/svg">
<path d="M18.9762 70.8047C25.3641 64.2718 31.7725 57.7545 38.1348 51.1906C39.485 49.7952 40.1754 50.9115 40.9937 51.7385C49.3302 60.163 57.6615 68.5978 65.998 77.0223C78.9528 90.1138 91.9126 103.2 104.873 116.292C105.353 116.778 105.926 117.201 106.284 117.765C106.918 118.767 106.714 119.62 105.445 119.858C104.704 119.997 103.921 119.946 103.154 119.946C70.11 119.946 37.071 119.951 4.02687 119.93C3.03979 119.93 1.97089 120.251 1.07075 119.517C0.180847 118.824 0.385423 117.827 0.385423 116.896C0.380308 88.9354 0.390537 60.9744 0.354736 33.0134C0.354736 31.2923 0.901977 30.0467 2.2266 29.0337C6.29766 25.9172 10.3483 22.7696 14.5216 19.7875C16.6492 18.268 17.401 18.6866 17.6618 21.3638C17.9125 23.9377 17.7488 26.5167 17.7386 29.0906C17.7028 39.4842 17.8818 49.8778 17.5749 60.2715C17.4828 63.3415 17.7488 66.4374 17.759 69.5177C17.7488 70.3292 17.4931 71.4301 18.9762 70.8047Z" fill="white"/>
<path d="M18.979 70.8019C18.7795 71.4272 18.4573 71.9492 17.7055 71.665C17.2861 71.5048 17.1378 71.0965 17.1787 70.6055C17.593 65.1011 16.8616 59.5761 17.1839 54.1079C17.6237 46.712 17.3526 39.3367 17.4293 31.9562C17.4651 28.2039 17.6697 24.4362 17.189 20.6736C16.9895 19.1076 16.6008 19.0972 15.5319 19.9242C11.0312 23.418 6.55103 26.948 1.97364 30.3385C0.920077 31.1189 0.618328 31.9304 0.618328 33.1294C0.633671 61.0853 0.628557 89.0411 0.649014 116.997C0.649014 117.839 0.914963 118.677 1.05817 119.514C-0.557983 119.002 0.158032 117.638 0.158032 116.677C0.122232 86.2864 0.137575 55.8962 0.147804 25.5009C0.147804 18.0119 0.214291 10.5177 0.112003 3.0287C0.0864308 0.81663 0.77176 -0.00514418 3.03232 2.42097e-05C40.0196 0.0465398 77.0018 0.0310346 113.989 0.036203C114.915 0.036203 116.04 -0.170533 116.49 0.868314C116.971 1.96918 115.912 2.56872 115.278 3.20443C98.7994 19.8673 82.2952 36.5096 65.832 53.1931C64.5534 54.4904 63.6839 54.7488 62.2979 53.2913C58.411 49.2031 54.432 45.1925 50.3814 41.2645C48.934 39.8638 49.2255 39.0007 50.5041 37.7345C56.2425 32.0337 61.9092 26.2503 67.5913 20.4927C68.1693 19.9035 68.7114 19.2833 69.32 18.6269C68.3892 17.9757 67.5249 18.2341 66.7168 18.2341C51.3787 18.2134 36.0355 18.2651 20.6974 18.1669C18.4829 18.1514 17.7874 18.6889 17.8027 21.0147C17.8999 36.8558 17.8436 52.697 17.8896 68.5381C17.8896 69.3392 17.1225 70.7967 18.979 70.8019Z" fill="white"/>
<path d="M286.826 68.3689C286.826 66.021 286.826 63.6731 286.826 61.3252C286.826 51.2413 286.866 41.1573 286.79 31.078C286.774 29.2208 287.282 28.698 288.851 28.7943C291.131 28.9319 293.422 28.9043 295.706 28.7989C296.992 28.7393 297.477 29.1428 297.436 30.6928C297.343 34.2008 297.408 37.7181 297.408 41.2307C297.408 57.1202 297.384 73.005 297.44 88.8945C297.444 90.6141 297.158 91.3341 295.488 91.2011C293.212 91.0222 290.913 91.0498 288.638 91.1965C287.278 91.2836 286.616 90.6646 285.975 89.3897C279.617 76.7332 273.202 64.1042 266.792 51.4797C266.441 50.7873 266.259 49.9206 265.505 49.5033C264.94 50.2599 265.211 51.1312 265.211 51.9246C265.19 64.2234 265.158 76.5223 265.235 88.8165C265.247 90.77 264.73 91.3065 263.08 91.1919C260.805 91.036 258.51 91.1094 256.226 91.1736C255.165 91.2011 254.669 90.9443 254.669 89.5502C254.705 69.8455 254.701 50.1361 254.677 30.4314C254.677 29.2529 255.008 28.7943 256.061 28.8126C259.018 28.8585 261.979 28.886 264.932 28.7989C266.15 28.7622 266.514 29.6472 266.99 30.5827C273.093 42.6156 279.209 54.6439 285.329 66.6676C285.656 67.3096 286.019 67.9241 286.366 68.5523C286.515 68.4973 286.673 68.4331 286.826 68.3689Z" fill="white"/>
<path d="M349.825 85.471C341.23 92.3379 331.049 93.1058 322.746 87.4712C317.525 83.9306 314.613 78.6978 313.213 72.5632C310.735 61.6824 311.048 50.94 316.047 40.8451C320.512 31.8306 328.363 28.4284 337.844 28.8124C347.117 29.1874 353.981 33.4067 357.458 42.6489C358.084 44.3098 357.75 44.8634 356.137 45.2117C353.737 45.7296 351.351 46.3725 349.012 47.1405C347.573 47.6137 346.838 47.3414 346.121 45.9037C344.604 42.8542 342.535 40.3718 339.044 39.4878C333.414 38.068 329.028 40.0637 326.45 45.426C323.968 50.5873 323.707 56.1505 323.794 61.7494C323.864 66.241 324.455 70.6478 326.537 74.6929C328.95 79.3854 332.671 81.3053 337.861 80.6177C342.469 80.006 346.06 76.5949 347.217 71.8935C347.651 70.1209 347.247 69.478 345.395 69.5807C342.869 69.7236 340.326 69.5807 337.796 69.6298C336.77 69.6477 336.383 69.2771 336.409 68.21C336.462 65.7588 336.475 63.3031 336.405 60.852C336.37 59.6241 336.901 59.3696 337.961 59.3741C344.478 59.4053 350.994 59.4187 357.511 59.3696C358.884 59.3607 359.223 59.9411 359.219 61.2359C359.184 70.3799 359.184 79.5238 359.223 88.6633C359.228 89.9179 358.845 90.4493 357.606 90.3198C356.963 90.2528 356.302 90.3153 355.654 90.3064C353.994 90.2841 352.085 90.7663 350.733 90.0876C349.212 89.3286 350.607 87.0917 349.825 85.471Z" fill="white"/>
<path d="M152.548 54.3488C153.647 54.1241 153.938 53.363 154.362 52.7807C159.825 45.3067 165.288 37.8326 170.712 30.3266C171.431 29.3315 172.163 28.7905 173.439 28.8226C176.89 28.9097 180.345 28.8455 183.8 28.8638C184.29 28.8684 184.947 28.6117 185.23 29.1069C185.614 29.7855 184.881 30.1844 184.559 30.6292C179.701 37.3374 174.855 44.0503 169.922 50.6989C169.022 51.9094 168.933 52.8265 169.626 54.17C175.583 65.7341 181.475 77.3302 187.388 88.9172C188.54 91.1686 188.548 91.1686 186.068 91.1732C182.909 91.1778 179.745 91.1044 176.59 91.2053C175.292 91.2465 174.621 90.7743 174.043 89.6004C170.063 81.5258 166.016 73.4878 161.987 65.436C161.683 64.8262 161.339 64.2393 161.034 63.634C160.642 62.8591 160.249 62.5794 159.605 63.4368C157.438 66.3256 155.245 69.1959 153.043 72.0526C152.478 72.7862 152.553 73.6207 152.553 74.4507C152.548 79.334 152.5 84.2219 152.584 89.1052C152.61 90.6138 152.323 91.2924 150.686 91.2099C147.827 91.0723 144.954 91.1365 142.09 91.1869C141.062 91.2053 140.594 90.8614 140.647 89.7609C140.691 88.7705 140.651 87.7755 140.651 86.7851C140.651 68.3156 140.682 49.8415 140.612 31.372C140.603 29.4003 141.04 28.6438 143.043 28.8042C145.453 28.9922 147.897 28.9831 150.311 28.8042C152.235 28.6621 152.615 29.437 152.593 31.2665C152.495 38.901 152.548 46.5263 152.548 54.3488Z" fill="white"/>
<path d="M416.089 89.435C410.794 69.7804 405.515 50.1213 400.266 30.453C399.934 29.2145 399.399 28.765 398.164 28.7971C394.573 28.8888 390.969 28.9301 387.383 28.7879C385.721 28.7191 385.19 29.4347 384.771 31.0034C381.819 42.0897 378.776 53.144 375.759 64.212C373.485 72.5646 371.227 80.9264 368.91 89.2698C368.499 90.7468 368.707 91.2834 370.286 91.2101C373.088 91.0816 375.897 91.1137 378.699 91.2009C379.924 91.2376 380.49 90.8248 380.788 89.5359C381.547 86.2792 382.514 83.073 383.248 79.8118C383.572 78.3624 384.137 77.7936 385.574 77.8716C387.87 78 390.175 77.9083 392.476 77.9083C394.781 77.9083 397.09 78.0459 399.377 77.8624C401.065 77.7248 401.617 78.5137 401.945 80.0595C402.627 83.2611 403.465 86.4214 404.16 89.6138C404.414 90.7789 404.911 91.233 406.072 91.2009C409.02 91.1229 411.972 91.1091 414.915 91.2009C416.344 91.2467 416.418 90.655 416.089 89.435ZM397.176 67.331C394.017 67.2531 390.857 67.3035 387.693 67.3035C386.977 67.3035 386.412 67.2852 386.696 66.1843C388.634 58.7032 390.538 51.2175 392.454 43.7318C392.64 43.7043 392.83 43.6722 393.015 43.6447C394.073 47.9012 395.139 52.1532 396.188 56.4144C396.93 59.4371 397.625 62.4736 398.38 65.4917C398.674 66.6705 398.622 67.3677 397.176 67.331Z" fill="white"/>
<path d="M244.924 89.1176C243.222 83.5592 241.633 77.9733 240.002 72.3965C239.626 71.3371 239.446 70.2273 239.084 69.1633C235.294 56.4138 231.484 43.6643 227.742 30.901C227.323 29.4655 226.81 28.7271 225.059 28.7868C221.107 28.9289 217.141 28.9152 213.184 28.7913C211.577 28.7455 210.977 29.383 210.583 30.7359C208.571 37.638 206.493 44.5173 204.438 51.4057C200.672 64.0084 196.948 76.6204 193.1 89.1956C192.554 90.9842 193.039 91.2548 194.732 91.1997C197.737 91.0943 200.753 91.1218 203.758 91.1906C205.023 91.2181 205.756 90.998 206.093 89.6221C206.916 86.2834 207.981 83.0043 208.861 79.6793C209.204 78.3723 209.789 77.8357 211.301 77.8632C216.447 77.9687 221.597 77.9687 226.743 77.8632C228.298 77.8311 229.007 78.3035 229.349 79.7435C230.124 83.018 231.066 86.2513 231.86 89.5166C232.165 90.7457 232.711 91.2594 234.119 91.2043C237.206 91.0897 240.302 91.0667 243.383 91.2089C245.314 91.2961 245.39 90.6448 244.924 89.1176ZM213.993 67.3151C212.885 67.3288 212.395 67.1133 212.747 65.8933C214.868 58.5555 216.932 51.2085 219.024 43.8615C219.081 43.6688 219.238 43.5037 219.467 43.1414C221.288 49.7914 223.062 56.267 224.836 62.7427C224.674 64.3157 225.606 65.7099 225.625 67.2509C221.749 67.2692 217.869 67.2646 213.993 67.3151Z" fill="white"/>
<path d="M240.266 72.0034C236.957 70.5456 235.303 68.9515 235.728 67.2008C239.368 68.6314 240.928 70.2322 240.266 72.0034Z" fill="white"/>
</svg>
